<svg xmlns="http://www.w3.org/2000/svg" viewBox="0 0 32 32" aria-hidden="true" role="presentation" focusable="false" style="display: block; height: 24px; width: 24px; fill: currentcolor;"><path d="M16 17a2 2 0 0 1-1.85 2h-1.41l-2.57 8.57A2 2 0 0 1 8.42 29l-.16.01H3.34a2 2 0 0 1-1.95-2.43l.04-.14 2.45-8.16A7 7 0 0 1 6.52 5.02L6.76 5H14a2 2 0 0 1 2 1.85V11h2V5h2v6h2.1a5 5 0 0 1 9.9 1 5 5 0 0 1-9.9 1H20v6h-2v-6h-2zm-5.34 2H5.74l-2.4 8h4.92zM7.02 7h-.2a5 5 0 0 0-.04 10H14V7zM27 9a3 3 0 1 0 0 6 3 3 0 0 0 0-6z"></path></svg>