<svg xmlns="http://www.w3.org/2000/svg" viewBox="0 0 32 32" aria-hidden="true" role="presentation" focusable="false" style="display: block; height: 24px; width: 24px; fill: currentcolor;"><path d="M16 1a5 5 0 0 1 4.15 7.79L20 9a3 3 0 0 1 .18 6h-.16c.14 4.03 1.15 6.91 2.98 8.68l.2.19.15.13H24.18a3 3 0 0 1 2.8 2.64l.01.18.01.18v3a1 1 0 0 1-.88 1H6a1 1 0 0 1-1-.88V27a3 3 0 0 1 2.82-3H8.65l.15-.13c1.96-1.76 3.04-4.7 3.18-8.87a3 3 0 0 1-.16-6H12a5 5 0 0 1 4-8zm8 25H8a1 1 0 0 0-1 .88V29h18v-2a1 1 0 0 0-.77-.97l-.11-.02zm-5.98-11h-4.04l-.01.36c-.17 3.66-1.02 6.55-2.6 8.64h9.25c-1.5-2-2.35-4.74-2.57-8.19l-.02-.45zM20 11h-8a1 1 0 0 0-.12 2H20a1 1 0 0 0 0-2zm-4-8a3 3 0 1 0 0 6 3 3 0 0 0 0-6z"></path></svg>