<svg xmlns="http://www.w3.org/2000/svg" viewBox="0 0 32 32" aria-hidden="true" role="presentation" focusable="false" style="display: block; height: 24px; width: 24px; fill: currentcolor;"><path d="M1 8a7 7 0 0 1 6.76-7H10a7 7 0 0 1 6.98 6.52l.02.24v.42A3 3 0 0 0 19.83 11H23a8 8 0 0 1 8 7.75V27a1 1 0 0 1-.88 1H29v3h-2v-3H5v3H3v-3H2a1 1 0 0 1-1-.88V8zm2 18h26v-6h-2v4h-2v-4h-2v4h-2v-4h-2v4h-2v-4h-2v4h-2v-4h-2v4H9v-4H7v4H5v-4H3v6zm7-23H8a5 5 0 0 0-5 4.78V18h25.91l-.01-.1a6 6 0 0 0-5.43-4.88l-.25-.02H20a5 5 0 0 1-5-4.77v-.42A5 5 0 0 0 10 3z"></path></svg>