<svg xmlns="http://www.w3.org/2000/svg" viewBox="0 0 32 32" aria-hidden="true" role="presentation" focusable="false" style="display: block; height: 24px; width: 24px; fill: currentcolor;"><path d="M30 19v2a2 2 0 0 0-2 1.85v4.65a3.5 3.5 0 0 1-7 .2v-5.78l2-2v7.58a1.5 1.5 0 0 0 3 .14V23a4 4 0 0 1 3.8-4zM8.35 15.26l1.47 1.47-4.06 2.3A4 4 0 0 0 4.4 24.7a10.22 10.22 0 0 0 3.13 3.04 4 4 0 0 0 5.34-1.34l.11-.18 2.29-4.05 1.47 1.47-2.02 3.57a6 6 0 0 1-7.76 2.48l-.21-.1-.2-.11a12.22 12.22 0 0 1-3.82-3.68 6 6 0 0 1 1.7-8.32l.18-.1.17-.11zm2.52 2.52 1.46 1.47-3.57 2.04a1.43 1.43 0 1 0 1.88 2.07l.07-.12 2.04-3.57 1.47 1.46-1.77 3.1a3.43 3.43 0 0 1-4.52 1.37l-.16-.09a3.43 3.43 0 0 1-.2-5.84l.2-.12zm.34-4.99 8 8-1.42 1.42-8-8zm3-3 8 8-1.42 1.42-8-8zM25.04 2.3l.21.1.2.11.36.22a12.22 12.22 0 0 1 3.46 3.46 6 6 0 0 1-1.7 8.32l-.18.1-.17.11-3.57 2.02-1.47-1.47 4.06-2.3.23-.13a4 4 0 0 0 1.13-5.55 10.22 10.22 0 0 0-3.13-3.04 4 4 0 0 0-5.34 1.34l-.11.18-2.29 4.05-1.47-1.47 2.02-3.57a6 6 0 0 1 7.76-2.48zm-.97 4.1.16.09a3.43 3.43 0 0 1 .2 5.84l-.2.12-3.1 1.77-1.46-1.47 3.57-2.04.1-.07.1-.07.1-.09a1.43 1.43 0 1 0-2.18-1.84l-.07.12-2.04 3.57-1.47-1.46 1.77-3.1a3.43 3.43 0 0 1 4.52-1.37z"></path></svg>