<svg xmlns="http://www.w3.org/2000/svg" viewBox="0 0 32 32" aria-hidden="true" role="presentation" focusable="false" style="display: block; height: 24px; width: 24px; fill: currentcolor;"><path d="M29 3a1 1 0 0 1 1 .88V16.5C30 23.96 23.72 30 16 30 8.51 30 2.36 24.32 2.02 17.12l-.02-.3V4a1 1 0 0 1 .88-1H29zm-1 2H4v3h6v2H4v5.06a8 8 0 0 1 7.77 12.2A12.44 12.44 0 0 0 16 28c1.49 0 2.92-.26 4.23-.73A8 8 0 0 1 28 15.07V10h-6V8h6V5zM5 17a6.05 6.05 0 0 0-.98.08c.2 3.99 2.52 7.44 5.9 9.34A6 6 0 0 0 5 17zm22 0a6 6 0 0 0-4.93 9.42c3.39-1.9 5.7-5.36 5.92-9.34l-.07-.01A6.05 6.05 0 0 0 27 17z"></path></svg>