<svg xmlns="http://www.w3.org/2000/svg" viewBox="0 0 32 32" aria-hidden="true" role="presentation" focusable="false" style="display: block; height: 24px; width: 24px; fill: currentcolor;"><path d="m4 8.24 2 2V17h6.76l2 2H6v2h10.76l2 2H6v2h14.76l1.89 1.9-.12.03-.16.03-.07.02a2.02 2.02 0 0 1-.3.02H10v2h14.76l1.89 1.9a1.99 1.99 0 0 1-.5.1H10a2 2 0 0 1-2-1.85V27H6a2 2 0 0 1-2-1.85V8.24zM3.7 2.3l26 26-1.4 1.42-26-26 1.4-1.42zM25.5 1l-.05.03a3 3 0 0 1 2.54 2.8L28 4v1h2v2h-2v16.76l-2-2V7h-2v12.76l-2-2V3H7.24L5.6 1.35c.37-.2.8-.32 1.23-.34L7 1h18.5zM25 3a1 1 0 0 0-1 .88V5h2V4a1 1 0 0 0-.88-1H25z"></path></svg>