<svg xmlns="http://www.w3.org/2000/svg" viewBox="0 0 32 32" aria-hidden="true" role="presentation" focusable="false" style="display: block; height: 24px; width: 24px; fill: currentcolor;"><path d="M26 0a2 2 0 0 1 2 1.85V22.88l1.97 7.88a1 1 0 0 1-.86 1.23L29 32H3a1 1 0 0 1-1-1.13l.03-.11L4 22.88V2a2 2 0 0 1 1.85-2H6zm.22 24H13.24a3 3 0 0 1-1.24.83V28h-2v-3.17A3 3 0 0 1 8.77 24H5.78l-1.5 6h23.44zM18 26a1 1 0 1 1 0 2 1 1 0 0 1 0-2zm5 0a1 1 0 1 1 0 2 1 1 0 0 1 0-2zm-12-5a1 1 0 1 0 0 2 1 1 0 0 0 0-2zM26 2H6v20h2a3 3 0 0 1 6 0h12zm-5 2a3 3 0 0 1 3 2.82V15a3 3 0 0 1-2.82 3H11a3 3 0 0 1-3-2.82V7a3 3 0 0 1 2.82-3H11zm0 2H11a1 1 0 0 0-1 .88V15a1 1 0 0 0 .88 1H21a1 1 0 0 0 1-.88V7a1 1 0 0 0-.88-1z"></path></svg>