<svg xmlns="http://www.w3.org/2000/svg" viewBox="0 0 32 32" aria-hidden="true" role="presentation" focusable="false" style="display: block; height: 24px; width: 24px; fill: currentcolor;"><path d="m3.7 2.3 26 26-1.4 1.4-26-26 1.4-1.4zM1.53 5.76l1.56 1.55a3 3 0 0 0-.08.5V20a3 3 0 0 0 2.82 3h12.94L21 25.24V27h1.76l.24.24V29H9v-2h2v-2H6a5 5 0 0 1-5-4.78V8a5 5 0 0 1 .53-2.23zM19 25h-6v2h6v-2zM7.24 3H26a5 5 0 0 1 5 4.78V20a5 5 0 0 1-2.45 4.3l-1.5-1.49A3 3 0 0 0 29 20.18V8a3 3 0 0 0-2.82-3H9.24l-2-2z"></path></svg>