<svg xmlns="http://www.w3.org/2000/svg" viewBox="0 0 32 32" aria-hidden="true" role="presentation" focusable="false" style="display: block; height: 24px; width: 24px; fill: currentcolor;"><path d="M14.3 2.3a1 1 0 0 1 1.7.59V29a1 1 0 0 1-1.62.78l-.09-.07L6.6 22H3a2 2 0 0 1-1.98-1.7l-.01-.15L1 20v-8a2 2 0 0 1 1.85-2h3.73zm5.7.02a14 14 0 0 1 0 27.36v-2.06a12 12 0 0 0 0-23.24zm-6 3.1L7.7 11.7a1 1 0 0 1-.57.28L7 12H3v8h4a1 1 0 0 1 .6.2l.1.1 6.3 6.28zm6 3.16a8 8 0 0 1 0 14.84V21.2a6 6 0 0 0 0-10.4z"></path></svg>