<svg xmlns="http://www.w3.org/2000/svg" viewBox="0 0 32 32" aria-hidden="true" role="presentation" focusable="false" style="display: block; height: 24px; width: 24px; fill: currentcolor;"><path d="M2 30v-2h9v-6H7.5a5.5 5.5 0 0 1-5.48-5.05L2 16.72V11.5a3.5 3.5 0 0 1 7-.2V15h2V5A5 5 0 0 1 15.56.02l.22-.01L16 0a5 5 0 0 1 5 4.78V10h2l-.02-2.5a3.51 3.51 0 0 1 3.13-3.48l.19-.01.19-.01a3.5 3.5 0 0 1 3.5 3.32l.01.19v4.37A5.13 5.13 0 0 1 25.1 17H21v11h9v2H2zM16 2a3 3 0 0 0-3 2.82V16a1 1 0 0 1-.88 1H8a1 1 0 0 1-1-.89V11.5a1.5 1.5 0 0 0-3-.13v5.13A3.5 3.5 0 0 0 7.3 20H12a1 1 0 0 1 1 .88V28h6V16a1 1 0 0 1 .77-.97l.11-.02L20 15h4.88A3.13 3.13 0 0 0 28 12.05V7.51a1.5 1.5 0 0 0-3.01-.14v.13L25 11a1 1 0 0 1-.89 1H20a1 1 0 0 1-1-.88V5a3 3 0 0 0-3-3z"></path></svg>