<svg xmlns="http://www.w3.org/2000/svg" viewBox="0 0 32 32" aria-hidden="true" role="presentation" focusable="false" style="display: block; height: 24px; width: 24px; fill: currentcolor;"><path d="M29 3a1 1 0 0 1 .96.72l.03.12 1 6a1 1 0 0 1-.88 1.15L30 11h-2v17h2v2h-6v-2h2V11h-2a1 1 0 0 1-1-1.05l.01-.11 1-6a1 1 0 0 1 .87-.83L25 3zm-12 9a2 2 0 0 1 2 1.85V15h1a3 3 0 0 1 3 2.82V30h-2v-2H4v2H2V18a3 3 0 0 1 2.82-3H6v-1a2 2 0 0 1 1.7-1.98l.15-.01L8 12zm3 10H5a1 1 0 0 0-1 .88V26h17v-3a1 1 0 0 0-.77-.97l-.11-.02zm0-5h-1v3h1c.35 0 .69.06 1 .17V18a1 1 0 0 0-.88-1zM6 17H5a1 1 0 0 0-1 .88v2.29a3 3 0 0 1 .8-.16L5 20h1zm11-3H8v6h9zm11.15-9h-2.3l-.67 4h3.64z"></path></svg>