<svg xmlns="http://www.w3.org/2000/svg" viewBox="0 0 32 32" aria-hidden="true" role="presentation" focusable="false" style="display: block; height: 24px; width: 24px; fill: currentcolor;"><path d="M21 3a2 2 0 0 1 2 1.85V12a7 7 0 0 1-2.23 5.12l-.2.18-.02.02.28.1A13.01 13.01 0 0 1 28.91 28H26.9a11 11 0 0 0-8.8-9.3l-.1-.02v-2.1a5 5 0 0 0 2.98-4.12l.02-.23V9H11v3a5 5 0 0 0 3 4.58v2.1a10.92 10.92 0 0 0-3 1.02V28H9v-6.99a11 11 0 0 0-3.9 7L3.1 28a13.02 13.02 0 0 1 7.8-10.46l.28-.11.28-.11-.23-.2a7 7 0 0 1-2.2-4.55l-.01-.3L9 12V5a2 2 0 0 1 1.85-2H11zm-3 23a1 1 0 1 1 0 2 1 1 0 0 1 0-2zm-4 0a1 1 0 1 1 0 2 1 1 0 0 1 0-2zm4-4a1 1 0 1 1 0 2 1 1 0 0 1 0-2zm-4 0a1 1 0 1 1 0 2 1 1 0 0 1 0-2zm7-17H11v2h10z"></path></svg>