<svg xmlns="http://www.w3.org/2000/svg" viewBox="0 0 32 32" aria-hidden="true" role="presentation" focusable="false" style="display: block; height: 24px; width: 24px; fill: currentcolor;"><path d="m2 6.24 2 2V28h19.76l2 2H4a2 2 0 0 1-2-1.85V6.24zM3.7 2.3l26 26-1.4 1.42-26-26 1.4-1.42zM28 2a2 2 0 0 1 2 1.85v21.91l-2-2V4H8.24l-2-2H28zM7.88 12.12l1.52 1.53a6.99 6.99 0 0 0-.4 2.28l1.34-1.35L11.76 16 9.4 18.35c.23.67.57 1.29.98 1.84l2.78-2.78 1.42 1.42-2.78 2.78a6.98 6.98 0 0 0 1.84.99L16 20.24l1.41 1.42L16.07 23h.17a6.98 6.98 0 0 0 2.11-.4l1.53 1.52a9 9 0 0 1-12-12zM16 7a9 9 0 0 1 8.12 12.88l-1.53-1.53a6.99 6.99 0 0 0 .41-2.28l-1.34 1.34L20.24 16l2.35-2.35a6.98 6.98 0 0 0-.98-1.84l-2.78 2.78-1.42-1.42 2.78-2.78a6.98 6.98 0 0 0-1.84-.99L16 11.76l-1.42-1.42L15.93 9h-.17a7 7 0 0 0-2.11.4l-1.53-1.52A8.96 8.96 0 0 1 16 7zm9-1a1 1 0 1 1 0 2 1 1 0 0 1 0-2z"></path></svg>