<svg xmlns="http://www.w3.org/2000/svg" viewBox="0 0 32 32" aria-hidden="true" role="presentation" focusable="false" style="display: block; height: 24px; width: 24px; fill: currentcolor;"><path d="M22.25 1.92c-.66-.7 0-1.89 1-1.64a9 9 0 1 1-5.28 17.2 4 4 0 0 1-3.33 4.48l-.2.02L8.42 28l1.29 1.3-1.42 1.4L7 29.42l-.8.8-.12.12a3.12 3.12 0 0 1-4.42-4.4l.13-.14.8-.8-1.3-1.28 1.42-1.42L4 23.6l6.01-6.03a4 4 0 0 1 3.51-3.53 8.96 8.96 0 0 1-.39-9.42c.53-.94 1.96-.5 1.87.57L15 5.5a4.5 4.5 0 1 0 7.54-3.32l-.19-.16zM4 26.42l-.8.79-.07.09a1.12 1.12 0 0 0 1.57 1.58l.1-.09.79-.79zM21 25a1 1 0 1 1 0 2 1 1 0 0 1 0-2zm-10.5-5.08L5.4 25l1.6 1.59 5.07-5.08c-.6-.33-1.1-.8-1.46-1.37zM27 19v2h2v2h-2v2h-2v-2h-2v-2h2v-2zm-13-3a2 2 0 1 0 0 4 2 2 0 0 0 0-4zM25.8 3.9l.06.23A6.52 6.52 0 0 1 19.5 12a6.5 6.5 0 0 1-5.28-2.7l-.14-.21-.08-.12v.27a7 7 0 0 0 6.52 6.74l.24.02H21a7 7 0 0 0 5.15-11.74l-.2-.2zM7 5v2h2v2H7v2H5V9H3V7h2V5zm3-3a1 1 0 1 1 0 2 1 1 0 0 1 0-2z"></path></svg>