<svg xmlns="http://www.w3.org/2000/svg" viewBox="0 0 32 32" aria-hidden="true" role="presentation" focusable="false" style="display: block; height: 24px; width: 24px; fill: currentcolor;"><path d="M10 2v5.29a7 7 0 0 1 8.5 9.33l-.14.3-.07.14.14.17a7.96 7.96 0 0 1 1.54 4.12l.02.32.01.33a8 8 0 1 1-14.61-4.5l.18-.27.14-.17-.07-.13a6.96 6.96 0 0 1-.61-2.28l-.02-.34L5 14a7 7 0 0 1 3-5.75V2zm2 7a5 5 0 0 0-4.38 7.42l.14.23.42.66-.54.56a6 6 0 1 0 8.9.22l-.72-.78.42-.65A5 5 0 0 0 12 9zm0 14a1 1 0 1 1 0 2 1 1 0 0 1 0-2zm2-2a1 1 0 1 1 0 2 1 1 0 0 1 0-2zm-4 0a1 1 0 1 1 0 2 1 1 0 0 1 0-2zm15.24-11a8.97 8.97 0 0 1 2.64 6.36 8.97 8.97 0 0 1-2.64 6.37l-1.41-1.42a6.98 6.98 0 0 0 2.05-4.95 6.98 6.98 0 0 0-2.05-4.95zM12 19a1 1 0 1 1 0 2 1 1 0 0 1 0-2zm10.41-6.17a4.98 4.98 0 0 1 1.47 3.53c0 1.38-.56 2.63-1.47 3.54L21 18.48a2.99 2.99 0 0 0 .88-2.12 2.99 2.99 0 0 0-.88-2.12zM12 11a3 3 0 1 1 0 6 3 3 0 0 1 0-6zm0 2a1 1 0 1 0 0 2 1 1 0 0 0 0-2z"></path></svg>