<svg xmlns="http://www.w3.org/2000/svg" viewBox="0 0 32 32" aria-hidden="true" role="presentation" focusable="false" style="display: block; height: 24px; width: 24px; fill: currentcolor;"><path d="M2 30a1 1 0 0 1-1-1.03l.01-.11 3-21A1 1 0 0 1 5 7c2.21 0 4.09-.31 5.63-.93 1.5-.6 3.03-1.83 4.6-3.71a1 1 0 0 1 1.54 0c1.57 1.88 3.1 3.11 4.6 3.71C22.91 6.7 24.8 7 27 7a1 1 0 0 1 .97.75l.02.1 3 21a1 1 0 0 1-.88 1.14L30 30H2zM16 4.52l-.17.18a12.85 12.85 0 0 1-4.46 3.23c-1.42.57-3.06.9-4.9 1.03l-.5.02h-.1L3.15 28H6v-4.33a3 3 0 0 1 .48-1.63l.12-.17 2.3-3.07a2 2 0 0 1 1.43-.8H12v-3a1 1 0 0 1 .88-1H19a1 1 0 0 1 1 .88V18h1.5a2 2 0 0 1 1.5.67l.1.13 2.3 3.07a3 3 0 0 1 .6 1.58V28h2.85L26.13 8.98h-.1a17.1 17.1 0 0 1-4.63-.77l-.77-.28a12.46 12.46 0 0 1-4.15-2.9l-.31-.33L16 4.5zM24 25H8v3h16v-3zm-2.5-5h-11l-2.25 3h15.5l-2.25-3zM18 16h-4v2h4v-2z"></path></svg>