<svg xmlns="http://www.w3.org/2000/svg" viewBox="0 0 32 32" aria-hidden="true" role="presentation" focusable="false" style="display: block; height: 24px; width: 24px; fill: currentcolor;"><path d="M21 0a4 4 0 0 1 1.37 7.76l-.11.21L25.48 12H31v2h-5.52a2 2 0 0 1-1.44-.61l-.12-.14-2.71-3.39-2.35 4.24 2.36 1.27a4.98 4.98 0 0 1 2.28 6.2l-.09.2L21.54 26H25a1 1 0 0 0 1-.88v-.16h2V25a3 3 0 0 1-2.82 3h-.35a3 3 0 1 1-5.66 0h-6.34a3 3 0 1 1-5.66 0H7a3 3 0 0 1-3-2.82v-.22h2V25a1 1 0 0 0 .88 1h8l2.8-5.6-2.83-1.59-1.33 1.98a5 5 0 0 1-3.9 2.2l-.25.01H3v-6l5.91.02.76-1.32a7 7 0 0 0 1.02 2.25l-.04.06a2 2 0 0 1-1.58 1l-.17.01L5 19v2h4.37a3 3 0 0 0 2.37-1.17l.12-.16 1.3-1.93a5 5 0 0 1-1.2-6l.1-.2 1.9-3.41 1.73.99-1.88 3.39a3 3 0 0 0 1 3.98l.15.09 3.7 2.08a2 2 0 0 1 .87 2.5l-.06.14-2.35 4.7h2.23l2.24-5.03c.6-1.37.1-2.97-1.15-3.75l-.16-.09-2.38-1.28a2 2 0 0 1-.94-2.35L21.05 6h.1a2 2 0 1 0-1.86-.96l-1.27 2.34-1.58-.95A3 3 0 0 0 15.12 6L14.9 6h-4.3l-2.71 4.98-1.76-.96 2.72-4.98a2 2 0 0 1 1.59-1.03l.16-.01h4.3a5 5 0 0 1 2.14.48A4 4 0 0 1 21 0zM10 28a1 1 0 1 0 0 2 1 1 0 0 0 0-2zm12 0a1 1 0 1 0 0 2 1 1 0 0 0 0-2z"></path></svg>