<svg xmlns="http://www.w3.org/2000/svg" viewBox="0 0 32 32" aria-hidden="true" role="presentation" focusable="false" style="display: block; height: 24px; width: 24px; fill: currentcolor;"><path d="M10.5 1c2.2 0 4.15 1.98 3.93 4.41l-.02.2L14 8.17c-.29 1.71.08 3.6 1.12 5.64.26.47.5.93.7 1.39a8 8 0 1 1-1.18 12.74l-.3.65-.44.87a1 1 0 0 1-.77.54L13 30H8a1 1 0 0 1-.83-.44l-.06-.11-.43-.87C4.9 24.88 4 22.04 4 20c0-1.85.6-3.84 1.77-5.97 1.07-2.03 1.5-3.88 1.29-5.57L7 8.16 6.58 5.6A4.06 4.06 0 0 1 10.5 1zM20 16c-1.26 0-2.46.39-3.46 1.1.3 1.02.46 1.99.46 2.9 0 1.53-.5 3.5-1.5 5.96A6 6 0 1 0 20 16zm-7-2H8c-.14.33-.3.65-.47.98A10.62 10.62 0 0 0 6 20c0 1.15.4 2.74 1.18 4.75l.15.38.3.7c.19.46.4.93.63 1.41l.36.76h3.76l.31-.66.32-.68.15-.33.21-.5.3-.7a16.59 16.59 0 0 0 1.31-4.7l.02-.23V20c0-1.48-.54-3.23-1.66-5.27L13 14zm7 7a1 1 0 1 1 0 2 1 1 0 0 1 0-2zm3-2a1 1 0 1 1 0 2 1 1 0 0 1 0-2zm-3-1a1 1 0 1 1 0 2 1 1 0 0 1 0-2zm-8.08-8H9.08c-.05.66-.17 1.32-.35 2h3.54c-.18-.68-.3-1.34-.35-2zM10.5 3C9.47 3 8.48 4 8.55 5.14l.01.15L9.01 8H12l.02-.16.42-2.52A2.05 2.05 0 0 0 10.5 3z"></path></svg>