<svg xmlns="http://www.w3.org/2000/svg" viewBox="0 0 32 32" aria-hidden="true" role="presentation" focusable="false" style="display: block; height: 24px; width: 24px; fill: currentcolor;"><path d="m20.88 1.51.05.12 1.86 4.64a3 3 0 0 1 .2.89l.01.23V30a1 1 0 0 1-.88 1H18a1 1 0 0 1-1-.88V7.38a3 3 0 0 1 .14-.9l.08-.2 1.85-4.65a1 1 0 0 1 1.8-.12zm8 0 .05.12 1.86 4.64a3 3 0 0 1 .2.89l.01.23V30a1 1 0 0 1-.88 1H26a1 1 0 0 1-1-.88V7.38a3 3 0 0 1 .14-.9l.08-.2 1.85-4.65a1 1 0 0 1 1.8-.12zM9.66 3.21l1.93.53-2.72 10.14 4.16 10.83 1.6-.64.74 1.86-1.62.65 1.2 3.13-1.87.72-1.19-3.11-1.52.6-.74-1.85 1.54-.62L8 17.16l-2.35 8.8 1.93.51-.52 1.93-1.93-.52-.78 2.9-1.93-.52.78-2.9-1.93-.51.51-1.93 1.93.51L6.77 14l-3.72-9.7 1.87-.72 2.73 7.13 2-7.48zM21 21h-2v8h2v-8zm8 0h-2v8h2v-8zm-8-5h-2v3h2v-3zm8 0h-2v3h2v-3zM20 4.7 19.07 7a1 1 0 0 0-.06.25l-.01.13V14h2V7.26l-.03-.13-.04-.12L20 4.7zm8 0L27.07 7a1 1 0 0 0-.06.25l-.01.13V14h2V7.38a1 1 0 0 0 0-.12l-.03-.13-.04-.12L28 4.7z"></path></svg>